# xmcd
#
# Track frame offsets:
#	150
#	14779
#	66624
#	105808
#	127494
#	149624
#	185057
#	227466
#	247777
#
# Disc length: 4082 seconds
#
# Revision: 1
# Processed by: cddbd v1.5.1PL0 Copyright (c) Steve Scherf et al.
# Submitted via: audiograbber 1.82.01
#
DISCID=850ff009
DTITLE=Albert Collins And Buddy Guy - 1993-04-09 - The Warner Theater,Washingto
DTITLE=n, DC - Disc 2
DYEAR=1900
DGENRE=
TTITLE0=Albert Collins And Buddy Guy - Mary Had A Little Lamb
TTITLE1=Albert Collins And Buddy Guy - Sweet Little Angel
TTITLE2=Albert Collins And Buddy Guy - I Just Want To Make Love To You Medley
TTITLE3=Albert Collins And Buddy Guy - Stormy Monday
TTITLE4=Albert Collins And Buddy Guy - Someone Else Is Slippin' In
TTITLE5=Albert Collins And Buddy Guy - Sweet Home Chicago
TTITLE6=Albert Collins And Buddy Guy - Hoochie Coochie Man Medley
TTITLE7=Albert Collins And Buddy Guy - Mustang Sally
TTITLE8=Albert Collins And Buddy Guy - Knock On Wood
EXTD=
EXTT0=
EXTT1=
EXTT2=
EXTT3=
EXTT4=
EXTT5=
EXTT6=
EXTT7=
EXTT8=
PLAYORDER=
